<?xml version="1.0" encoding="utf-8"?>
<!-- Generator: Adobe Illustrator 16.0.0, SVG Export Plug-In . SVG Version: 6.00 Build 0)  -->
<!DOCTYPE svg PUBLIC "-//W3C//DTD SVG 1.1//EN" "http://www.w3.org/Graphics/SVG/1.1/DTD/svg11.dtd">
<svg version="1.1" id="Layer_1" xmlns="http://www.w3.org/2000/svg" xmlns:xlink="http://www.w3.org/1999/xlink" x="0px" y="0px"
	 width="215px" height="50px" preserveAspectRatio="none" viewBox="0 0 215 50" enable-background="new 0 0 215 50" xml:space="preserve">
<path fill="#21CCBB" d="M215,25c0,13.807-11.192,25-25,25H25C11.193,50,0,38.807,0,25l0,0C0,11.193,11.193,0,25,0h165
	C203.808,0,215,11.193,215,25L215,25z"/>
<g>
	<path fill="#FFFFFF" d="M68.68,19.664h2.225v9.569h4.2v2.123H68.68V19.664z"/>
	<path fill="#FFFFFF" d="M82.942,22.708h2.17v8.648h-2.17v-0.914c-0.424,0.402-0.848,0.692-1.274,0.869
		c-0.426,0.178-0.888,0.268-1.386,0.268c-1.116,0-2.083-0.434-2.897-1.3s-1.223-1.942-1.223-3.231c0-1.335,0.394-2.429,1.183-3.282
		c0.789-0.853,1.747-1.279,2.874-1.279c0.519,0,1.005,0.098,1.46,0.294c0.455,0.196,0.875,0.49,1.262,0.882V22.708z M80.661,24.488
		c-0.67,0-1.227,0.237-1.671,0.711c-0.444,0.474-0.665,1.083-0.665,1.824c0,0.747,0.226,1.362,0.677,1.844
		c0.451,0.481,1.007,0.723,1.667,0.723c0.681,0,1.246-0.236,1.695-0.711c0.448-0.474,0.673-1.096,0.673-1.864
		c0-0.752-0.225-1.361-0.673-1.827C81.915,24.722,81.348,24.488,80.661,24.488z"/>
	<path fill="#FFFFFF" d="M87.066,19.37h2.17v11.986h-2.17V19.37z"/>
	<path fill="#FFFFFF" d="M92.054,19.147c0.38,0,0.707,0.138,0.979,0.413c0.272,0.276,0.409,0.609,0.409,1.001
		c0,0.387-0.135,0.717-0.405,0.99c-0.27,0.273-0.592,0.41-0.967,0.41c-0.386,0-0.715-0.139-0.987-0.417
		c-0.272-0.278-0.408-0.616-0.408-1.013c0-0.381,0.135-0.708,0.404-0.978C91.348,19.282,91.674,19.147,92.054,19.147z
		 M90.969,22.708h2.169v8.648h-2.169V22.708z"/>
	<path fill="#FFFFFF" d="M94.184,22.708h2.211l2.184,5.102l2.18-5.102h2.2l-3.681,8.648h-1.406L94.184,22.708z"/>
	<path fill="#FFFFFF" d="M103.718,22.708h1.859v1.089c0.201-0.429,0.468-0.754,0.803-0.977c0.333-0.223,0.7-0.334,1.096-0.334
		c0.281,0,0.576,0.074,0.883,0.222l-0.676,1.868c-0.254-0.127-0.463-0.19-0.628-0.19c-0.334,0-0.616,0.206-0.846,0.62
		c-0.231,0.413-0.346,1.224-0.346,2.432l0.009,0.422v3.497h-2.154V22.708z"/>
	<path fill="#FFFFFF" d="M115.814,22.708h2.171v8.648h-2.171v-0.914c-0.424,0.402-0.849,0.692-1.275,0.869
		c-0.426,0.178-0.886,0.268-1.385,0.268c-1.116,0-2.082-0.434-2.898-1.3c-0.813-0.866-1.223-1.942-1.223-3.231
		c0-1.335,0.396-2.429,1.185-3.282c0.788-0.853,1.747-1.279,2.873-1.279c0.52,0,1.005,0.098,1.46,0.294
		c0.457,0.196,0.877,0.49,1.264,0.882V22.708z M113.533,24.488c-0.671,0-1.229,0.237-1.672,0.711
		c-0.443,0.474-0.666,1.083-0.666,1.824c0,0.747,0.227,1.362,0.677,1.844c0.454,0.481,1.009,0.723,1.669,0.723
		c0.682,0,1.247-0.236,1.695-0.711c0.448-0.474,0.673-1.096,0.673-1.864c0-0.752-0.225-1.361-0.673-1.827
		C114.788,24.722,114.221,24.488,113.533,24.488z"/>
	<path fill="#FFFFFF" d="M121.023,19.147c0.381,0,0.707,0.138,0.979,0.413c0.271,0.276,0.408,0.609,0.408,1.001
		c0,0.387-0.135,0.717-0.404,0.99c-0.269,0.273-0.592,0.41-0.968,0.41c-0.385,0-0.714-0.139-0.986-0.417
		c-0.271-0.278-0.408-0.616-0.408-1.013c0-0.381,0.136-0.708,0.404-0.978C120.318,19.282,120.644,19.147,121.023,19.147z
		 M119.938,22.708h2.171v8.648h-2.171V22.708z"/>
	<path fill="#FFFFFF" d="M129.373,23.916l-1.343,1.343c-0.547-0.541-1.042-0.811-1.486-0.811c-0.243,0-0.435,0.052-0.572,0.155
		c-0.139,0.104-0.208,0.231-0.208,0.386c0,0.116,0.045,0.224,0.132,0.322c0.088,0.098,0.304,0.231,0.648,0.401l0.795,0.397
		c0.837,0.414,1.411,0.834,1.724,1.264c0.313,0.429,0.469,0.932,0.469,1.51c0,0.77-0.282,1.411-0.845,1.925
		c-0.564,0.513-1.322,0.771-2.271,0.771c-1.26,0-2.268-0.493-3.02-1.479l1.334-1.453c0.255,0.296,0.554,0.535,0.895,0.719
		c0.343,0.184,0.646,0.274,0.911,0.274c0.287,0,0.517-0.068,0.691-0.207c0.175-0.137,0.262-0.297,0.262-0.478
		c0-0.332-0.315-0.659-0.945-0.977l-0.732-0.365c-1.397-0.706-2.098-1.587-2.098-2.647c0-0.683,0.264-1.268,0.792-1.752
		c0.526-0.485,1.2-0.728,2.022-0.728c0.562,0,1.091,0.124,1.586,0.369C128.608,23.101,129.028,23.455,129.373,23.916z"/>
	<path fill="#FFFFFF" d="M135.302,22.485c0.816,0,1.583,0.204,2.302,0.611c0.718,0.409,1.277,0.962,1.681,1.662
		c0.402,0.7,0.604,1.455,0.604,2.265c0,0.816-0.204,1.579-0.608,2.288c-0.405,0.711-0.958,1.267-1.658,1.666
		c-0.698,0.401-1.47,0.601-2.312,0.601c-1.24,0-2.299-0.441-3.175-1.324c-0.878-0.883-1.316-1.954-1.316-3.214
		c0-1.352,0.496-2.478,1.486-3.378C133.176,22.877,134.174,22.485,135.302,22.485z M135.339,24.528
		c-0.676,0-1.236,0.234-1.686,0.703c-0.448,0.469-0.673,1.07-0.673,1.801c0,0.751,0.223,1.361,0.665,1.827
		c0.443,0.466,1.004,0.699,1.684,0.699c0.681,0,1.246-0.236,1.696-0.707c0.451-0.472,0.677-1.078,0.677-1.819
		c0-0.742-0.222-1.345-0.665-1.809C136.595,24.76,136.027,24.528,135.339,24.528z"/>
	<path fill="#FFFFFF" d="M141.66,22.708h2.171v0.887c0.491-0.416,0.937-0.704,1.337-0.866c0.399-0.163,0.808-0.243,1.226-0.243
		c0.857,0,1.584,0.299,2.183,0.898c0.502,0.509,0.755,1.261,0.755,2.257v5.715h-2.147v-3.787c0-1.031-0.045-1.717-0.139-2.056
		c-0.093-0.339-0.253-0.597-0.483-0.774s-0.514-0.266-0.852-0.266c-0.439,0-0.815,0.147-1.131,0.44
		c-0.314,0.294-0.531,0.701-0.653,1.219c-0.063,0.27-0.095,0.854-0.095,1.755v3.469h-2.171V22.708z"/>
	<path fill="#FFFFFF" d="M152.612,29.089c0.344,0,0.639,0.122,0.883,0.362c0.244,0.242,0.364,0.533,0.364,0.879
		c0,0.344-0.12,0.638-0.364,0.881c-0.244,0.244-0.539,0.367-0.883,0.367s-0.639-0.123-0.883-0.367
		c-0.243-0.243-0.364-0.537-0.364-0.881c0-0.346,0.121-0.637,0.364-0.879C151.974,29.211,152.269,29.089,152.612,29.089z"/>
	<path fill="#FFFFFF" d="M155.966,22.708h2.171v0.994c0.37-0.408,0.783-0.713,1.236-0.914c0.453-0.202,0.948-0.302,1.482-0.302
		c0.542,0,1.028,0.132,1.465,0.397c0.434,0.266,0.784,0.652,1.05,1.161c0.344-0.509,0.768-0.895,1.268-1.161
		c0.501-0.265,1.049-0.397,1.643-0.397c0.616,0,1.156,0.143,1.623,0.429c0.466,0.287,0.802,0.66,1.006,1.12
		c0.204,0.461,0.307,1.211,0.307,2.25v5.071h-2.186v-4.387c0-0.981-0.122-1.645-0.366-1.992c-0.243-0.347-0.609-0.521-1.097-0.521
		c-0.371,0-0.703,0.106-0.998,0.318c-0.294,0.211-0.512,0.505-0.654,0.878c-0.144,0.374-0.214,0.974-0.214,1.8v3.903h-2.187v-4.188
		c0-0.774-0.058-1.334-0.172-1.681s-0.286-0.605-0.513-0.775c-0.229-0.169-0.505-0.254-0.83-0.254c-0.36,0-0.688,0.107-0.983,0.322
		c-0.295,0.215-0.515,0.516-0.66,0.902c-0.146,0.386-0.22,0.997-0.22,1.829v3.847h-2.171V22.708z"/>
	<path fill="#FFFFFF" d="M177.664,22.708h2.169v8.648h-2.169v-0.914c-0.423,0.402-0.849,0.692-1.273,0.869
		c-0.427,0.178-0.889,0.268-1.386,0.268c-1.117,0-2.083-0.434-2.897-1.3s-1.222-1.942-1.222-3.231c0-1.335,0.393-2.429,1.181-3.282
		c0.789-0.853,1.747-1.279,2.875-1.279c0.518,0,1.006,0.098,1.46,0.294s0.876,0.49,1.263,0.882V22.708z M175.383,24.488
		c-0.67,0-1.228,0.237-1.671,0.711c-0.444,0.474-0.664,1.083-0.664,1.824c0,0.747,0.225,1.362,0.676,1.844
		c0.45,0.481,1.008,0.723,1.667,0.723c0.682,0,1.246-0.236,1.695-0.711c0.449-0.474,0.674-1.096,0.674-1.864
		c0-0.752-0.225-1.361-0.674-1.827C176.637,24.722,176.069,24.488,175.383,24.488z"/>
</g>
<path fill-rule="evenodd" clip-rule="evenodd" fill="#FFFFFF" d="M48.555,41.818l1.301-1.401l1.044,0.815c0,0,2.761,1.375,4.69,0
	c0.007-0.008,2.325-1.033,3.518-4.684c-0.009,0.051,0-17.561,0-17.561s-1.753-6.292-7.622-8.195c-0.019,0.145-2.593-1.35-7.035,0
	c0.081,0.084-5.917,1.553-7.622,8.195c0.043,0.078,0,17.561,0,17.561s0.901,3.667,3.518,4.684c0.023-0.009,2.12,1.211,4.69,0
	c-0.022,0.052,2.475-1.411,3.518-4.684c0.018-0.021,0-4.684,0-4.684s-0.246-0.584-0.586-0.584c0.009,0-0.333-0.04-0.586,0.584
	c-0.004,0.026,0,5.854,0,5.854s-0.217,0.489-1.172,1.171c-0.031,0.007-1.289-5.104,0-8.78c0.044,0.045,0.913-1.809,1.759-2.342
	c0.004,0.015,0.586-12.877,0.586-12.877h0.59l0.582,9.951c0,0,1.172-0.328,1.172-1.17c0,0.051-0.291-8.78-0.291-8.78h0.3
	c0,0,2.376,8.088,1.164,10.536c-0.001-0.076-1.454,2.395-2.931,3.512c0.029,0.019,0,1.171,0,1.171s1.042,0.399,1.172,2.341
	c0.015,0.033,1.525,7.263-5.863,11.121c-0.016,0.075-2.547,0.223-4.104,0c0.029,0.001-4.928-2.157-5.277-7.023
	c-0.033-0.01,0-18.146,0-18.146s1.053-7.397,9.967-9.951c0.012,0.014,2.613-0.486,5.863,0c-0.114,0.053,7.583,1.503,9.968,9.367
	c0.049,0.044,0,18.731,0,18.731s-0.719,5.122-5.863,7.023c0.056,0.073-2.083,0.399-4.104,0
	C50.944,43.607,49.232,42.933,48.555,41.818z M47.382,14.891v12.292c0,0-0.293,0.674-1.172,1.171
	c0.002-0.02-2.496-1.653-2.932-4.097c0.031,0.04,0.093-5.861,1.75-9.365c0.336,0,0.3,0,0.3,0l-0.291,8.78
	c0,0,0.183,0.987,1.173,1.17c0,0.018,0.582-9.951,0.582-9.951H47.382z"/>
</svg>
